<svg width="198" height="239" viewBox="0 0 198 239" fill="none" xmlns="http://www.w3.org/2000/svg">
<path d="M123.7 4C121.2 6.2 117.7 10.3 115.8 13C113.6 16.4 112 17.8 111 17.4C106.9 15.8 98 15.8 92.5 17.4C81.8 20.6 72 33.1 72 43.6C72 46.5 71.4 47.2 66.5 50C63.5 51.7 58.6 55.4 55.6 58.1C51 62.3 48.9 63.4 41.4 65.6C36.5 67 30.6 69.2 28.3 70.6C19.8 75.5 14 86.1 14 96.6C14 101.7 13.5 103 9 109.7C-0.399996 123.7 -2.4 137.4 3.4 148.8C6.9 155.8 12.6 161.9 17.4 163.9C21.2 165.6 21.7 166.4 36 196.1C44.1 212.8 51.8 229.3 53.1 232.7L55.5 239L99.3 238.7L143 238.5L147.4 229C154.8 212.9 168.9 182.9 173 174.5C176.3 167.8 177.7 165.9 182.1 163C189.7 157.9 193.8 152.6 196.2 144.7C200.1 131.9 197.4 119.4 188.5 109.1C184.8 105 184.7 104.5 184.4 96.9C183.9 79.8 174.1 69 155.5 64.9C150.7 63.9 148 62.4 142.2 57.8C138.2 54.6 134 51.5 132.9 51C131.4 50.1 131 48.8 131 44.2C131 37.4 127.9 30.1 123.1 25.2C119.9 22 119.8 21.9 121.5 19.4C122.4 18 125.4 14.4 128.1 11.4C133.4 5.5 133.8 3.6 130.3 1.3C128.3 -0.100004 127.8 0.0999964 123.7 4ZM106.5 26C106.8 26.5 106.1 29.2 105 31.9C102.1 38.5 102.6 41.5 106.5 41.5C109.2 41.5 109.8 40.9 112.4 35.5L115.3 29.6L117.6 32.5C121.1 36.8 122.3 41.4 121.8 48.1C121.3 54.6 118.3 59.5 112.1 63.7C102.2 70.4 87.4 65.4 82.6 53.8C80.8 49.6 80.5 42.4 81.9 38.7C83.5 34.7 89.2 28.8 93.5 26.9C97.8 24.9 105.5 24.4 106.5 26ZM78.7 64.9C90.5 78.6 111.2 79.2 123.1 66.3L127.2 61.8L131.4 64.7C133.6 66.3 137.1 69.7 139 72.3C142.5 77 142.5 77 148.5 77C156.6 77 160.7 78.3 164.8 82.2C170.9 88.1 172.4 92.3 171.6 101.6L171 109.8L177.4 116.2C182.6 121.5 183.9 123.5 185 127.9C186.8 135.3 185.1 142.3 180.3 147.9C177 151.8 176.6 152 175 150.5C174 149.6 172 146.9 170.4 144.4C167 139.1 161 135.8 153.4 135.2C146 134.6 142.2 135.5 135.6 139.5L129.8 143L124.8 138.5C122.1 136.1 117.3 132.8 114.2 131.3C109.1 128.8 107.4 128.5 99 128.5C87.5 128.6 82.5 130.5 74.7 137.9L69.4 142.9L65.1 140.1C59.2 136.2 53.3 134.7 45.6 135.2C37.8 135.7 33 138.6 27.4 146.5C25.2 149.5 23.2 151.9 22.9 152C21.2 152.1 17 147.5 15.1 143.7C12.6 138.5 12.3 129.6 14.5 124.3C15.3 122.4 18.5 118.3 21.6 115.4L27.2 110L26.5 101.7C25.9 94.4 26.1 92.8 27.8 89.3C31.9 81.3 39.2 77.1 49 77C54.4 76.9 56.6 75.8 61.1 70.6C64.1 67.1 72.7 60.1 74 60C74.3 60 76.4 62.2 78.7 64.9ZM108.8 142.4C116.7 146.5 122 153.8 122 160.6C122 164 119.2 177.6 112.4 207.7C111 213.8 109.4 220.4 108.9 222.4L107.9 226H100H92L90.1 222.2C89 220 87.4 214.1 86.5 208.9C85.6 203.8 83.3 193.2 81.3 185.5C76.8 167.5 76.2 155.3 79.8 150.3C86.3 141.2 99.5 137.6 108.8 142.4ZM57.2 149.7C61.1 154 62.8 158 64.5 167.6C65.4 172.5 68.3 186.2 71 198C73.7 209.8 76.2 221 76.5 222.7L77.2 226H70.2H63.3L61 219.8C59.8 216.4 54.8 205.9 50 196.6C45.2 187.2 40.1 176.5 38.6 172.8C35.7 165.4 35.2 157.1 37.4 153.1C39.3 149.7 44.7 147.1 50.1 147C53.8 147 55.1 147.5 57.2 149.7ZM156.9 149C159.3 150.2 161.4 152.3 162.5 154.6C165.4 160.8 163.6 167 152.2 189.7C146.8 200.6 140.8 213.2 139 217.7L135.6 226H128.4H121.3L121.7 223.2C122 221.7 124 212.8 126.2 203.5C128.4 194.1 131.4 180.4 133 172.9C136.1 157.6 137.9 153.1 142.2 149.5C145.9 146.4 151.5 146.2 156.9 149Z" fill="#7B5537"/>
<path d="M129.8 81.1C127.3 82.5 127.4 88.6 129.9 90C133 91.6 135.8 91.2 137.4 88.8C139.5 85.8 139.4 84.4 137 82C134.8 79.8 132.4 79.5 129.8 81.1Z" fill="#7B5537"/>
<path d="M79.4 88.9C71.2 93.9 69.4 103 76.5 103C79.2 103 88 94.1 88 91.4C88 86.9 84.4 85.9 79.4 88.9Z" fill="#7B5537"/>
<path d="M38.5999 89.6C36.4999 91.7 36.5999 95.3 38.7999 97.3C41.1999 99.5 44.2999 99.4 46.2999 97.2C49.6999 93.5 47.3999 88 42.4999 88C41.1999 88 39.3999 88.7 38.5999 89.6Z" fill="#7B5537"/>
<path d="M101.6 99.2C99.5 102.2 99.6 103.6 102 106C105.8 109.8 111 107.5 111 102C111 97 104.4 95.1 101.6 99.2Z" fill="#7B5537"/>
<path d="M120.4 108.8C115.5 112.4 113.3 116.8 115 119.9C116.8 123.3 120.1 122.4 125.4 117.1C129.2 113.2 130.1 111.7 129.8 109.4C129.4 105.3 125.6 105.1 120.4 108.8Z" fill="#7B5537"/>
<path d="M67.3 110C65.5 110.7 65 111.7 65 114.3C65 118.3 66.5 120 70 120C73.4 120 75 118.3 75 114.5C75 112.1 74.4 111 72.5 110.2C71.1 109.5 69.8 109 69.7 109.1C69.6 109.1 68.5 109.5 67.3 110Z" fill="#7B5537"/>
<path d="M25.5999 118.1C22.6999 120.4 22.1999 124.1 24.4999 126C26.2999 127.5 37.6999 126.8 40.9999 125C43.6999 123.6 43.6999 118.5 41.0999 117C37.5999 115.2 28.5999 115.8 25.5999 118.1Z" fill="#7B5537"/>
<path d="M155 118.5C153 120.9 154.6 124.5 159.6 128.9C164.4 133.1 166.7 133.9 168.8 131.8C171.6 129 169.4 123.5 164 119.5C160.2 116.7 156.8 116.3 155 118.5Z" fill="#7B5537"/>
</svg>
